<svg preserveAspectRatio="xMidYMid meet" data-bbox="0 0.754 185.611 23.758" xmlns="http://www.w3.org/2000/svg" viewBox="0 0.754 185.611 23.758" height="25" width="186" data-type="shape" role="presentation" aria-hidden="true" aria-label="">
    <g fill-rule="evenodd">
        <path fill-rule="nonzero" d="M69.952 24V13.984h5.824c1.43 0 2.677-.272 3.744-.816 1.067-.544 1.899-1.296 2.496-2.256.597-.96.896-2.08.896-3.36 0-1.301-.299-2.432-.896-3.392s-1.43-1.707-2.496-2.24c-1.067-.533-2.315-.8-3.744-.8h-8.384V24h2.56zm5.824-12.256h-5.824V3.36h5.824c1.408 0 2.512.368 3.312 1.104.8.736 1.2 1.765 1.2 3.088 0 1.301-.4 2.325-1.2 3.072-.8.747-1.904 1.12-3.312 1.12zm14.74 12.768c1.195 0 2.272-.24 3.232-.72.96-.48 1.739-1.125 2.336-1.936V24h2.336v-9.92c0-1.28-.277-2.395-.832-3.344a5.69 5.69 0 00-2.336-2.208c-1.003-.523-2.176-.784-3.52-.784-2.453 0-4.576.939-6.368 2.816l1.6 1.568c1.259-1.515 2.795-2.272 4.608-2.272 1.387 0 2.48.39 3.28 1.168.8.779 1.2 1.83 1.2 3.152v.128h-4.416c-2.07 0-3.717.47-4.944 1.408-1.227.939-1.84 2.208-1.84 3.808 0 .96.24 1.819.72 2.576.48.757 1.147 1.35 2 1.776.853.427 1.835.64 2.944.64zm.352-2.048c-1.045 0-1.883-.277-2.512-.832-.63-.555-.944-1.29-.944-2.208 0-1.003.395-1.776 1.184-2.32.79-.544 1.899-.816 3.328-.816h4.128v2.72A5.114 5.114 0 0194.1 21.52c-.917.63-1.995.944-3.232.944zM105.544 24v-6.592c0-1.621.256-2.95.768-3.984.512-1.035 1.19-1.803 2.032-2.304a5.257 5.257 0 012.736-.752h.544V8h-.512c-1.11 0-2.187.288-3.232.864-1.046.576-1.835 1.547-2.368 2.912v-3.52h-2.432V24h2.464zm17.268 0v-2.112H119.9c-1.024 0-1.536-.544-1.536-1.632v-9.888h4.224V8.256h-4.224V3.648H115.9v4.608h-3.008v2.112h3.008V20.48c0 1.13.288 2 .864 2.608.576.608 1.418.912 2.528.912h3.52zm5.908 0v-7.072c0-1.643.234-2.981.704-4.016.469-1.035 1.077-1.792 1.824-2.272a4.359 4.359 0 012.4-.72c1.173 0 2.106.421 2.8 1.264.693.843 1.04 2.096 1.04 3.76V24h2.464v-9.344c0-2.24-.518-3.952-1.552-5.136-1.035-1.184-2.459-1.776-4.272-1.776-1.11 0-2.166.283-3.168.848-1.003.565-1.76 1.53-2.272 2.896V8.256h-2.432V24h2.464zm22.9.512c1.344 0 2.576-.283 3.696-.848s2.096-1.424 2.928-2.576l-1.664-1.6c-.64.981-1.355 1.707-2.144 2.176-.79.47-1.675.704-2.656.704-1.558 0-2.832-.501-3.824-1.504-.992-1.003-1.574-2.293-1.744-3.872h12.384v-.96c0-1.621-.31-3.056-.928-4.304-.62-1.248-1.478-2.224-2.576-2.928-1.1-.704-2.363-1.056-3.792-1.056-1.451 0-2.758.363-3.92 1.088-1.163.725-2.08 1.723-2.752 2.992-.672 1.27-1.008 2.704-1.008 4.304s.336 3.035 1.008 4.304a7.535 7.535 0 002.816 2.992c1.205.725 2.597 1.088 4.176 1.088zm4.416-9.536h-9.792c.192-1.515.752-2.741 1.68-3.68.928-.939 2.053-1.408 3.376-1.408 1.322 0 2.405.459 3.248 1.376.842.917 1.338 2.155 1.488 3.712zm8.98 9.024v-6.592c0-1.621.255-2.95.767-3.984.512-1.035 1.19-1.803 2.032-2.304a5.257 5.257 0 012.736-.752h.544V8h-.512c-1.109 0-2.186.288-3.232.864-1.045.576-1.834 1.547-2.368 2.912v-3.52h-2.432V24h2.464zm14.163.512c1.238 0 2.342-.208 3.312-.624.971-.416 1.734-1.003 2.288-1.76.555-.757.832-1.627.832-2.608 0-1.387-.48-2.459-1.44-3.216-.96-.757-2.602-1.307-4.928-1.648-1.408-.213-2.389-.496-2.944-.848-.554-.352-.832-.827-.832-1.424 0-.747.331-1.36.992-1.84.662-.48 1.515-.72 2.56-.72 1.003 0 1.894.23 2.672.688.779.459 1.467 1.083 2.064 1.872l1.6-1.696c-.81-.939-1.738-1.664-2.784-2.176-1.045-.512-2.229-.768-3.552-.768-1.792 0-3.253.432-4.384 1.296-1.13.864-1.696 2.021-1.696 3.472 0 1.216.454 2.165 1.36 2.848.907.683 2.48 1.205 4.72 1.568 1.472.213 2.512.528 3.12.944.608.416.912.976.912 1.68 0 .853-.357 1.547-1.072 2.08-.714.533-1.648.8-2.8.8-1.109 0-2.106-.23-2.992-.688a7.896 7.896 0 01-2.352-1.872l-1.6 1.696a9.943 9.943 0 002.976 2.16c1.11.523 2.432.784 3.968.784z"></path>
        <path d="M34.285 1.19c-1.19.623-1.633 1.677-1.633 4.587 0 0 .603-.583 1.496-.907a6.349 6.349 0 001.53-.831c1.005-.737 1.16-1.687 1.16-3.284 0 0-1.638-.045-2.553.435"></path>
        <path d="M27.077 1.878c-.963.86-1.244 2.231-1.244 2.231l-3.187 12.52-2.65-10.247c-.259-1.089-.724-2.435-1.46-3.346-.938-1.16-2.844-1.233-3.047-1.233-.204 0-2.11.073-3.047 1.233-.737.91-1.202 2.257-1.46 3.346l-2.65 10.247-3.188-12.52s-.28-1.37-1.242-2.231C2.341.483 0 .781 0 .781l6.103 23.396s2.012.148 3.02-.373c1.323-.684 1.952-1.212 2.753-4.395.714-2.837 2.71-11.174 2.896-11.768.092-.294.21-.994.717-.994.518 0 .626.7.716.994.183.594 2.182 8.93 2.896 11.768.801 3.183 1.431 3.71 2.754 4.395 1.007.52 3.02.373 3.02.373L30.978.781s-2.34-.298-3.901 1.097"></path>
        <path d="M36.837 4.94s-.385.588-1.263 1.073c-.564.311-1.105.522-1.685.797-.973.461-1.237.974-1.237 1.757v15.594s1.553.193 2.568-.318c1.307-.658 1.607-1.292 1.618-4.148V5.772h-.001V4.94z"></path>
        <path d="M52.59 12.516L60.281.858s-3.246-.563-4.853.929c-1.029.953-2.179 2.669-2.179 2.669l-2.83 4.157c-.137.217-.316.452-.604.452-.287 0-.466-.235-.604-.452l-2.83-4.157s-1.15-1.716-2.178-2.67C42.596.296 39.35.859 39.35.859l7.69 11.658-7.67 11.622s3.38.434 4.988-1.057c1.027-.953 2.023-2.505 2.023-2.505l2.83-4.157c.138-.217.317-.451.604-.451.288 0 .467.234.604.451l2.83 4.157s1.054 1.552 2.083 2.505c1.607 1.491 4.929 1.057 4.929 1.057l-7.67-11.622z"></path>
    </g>
</svg>