<svg preserveAspectRatio="xMidYMid meet" data-bbox="0 8.754 241.927 29.454" xmlns="http://www.w3.org/2000/svg" viewBox="0 8.754 241.927 29.454" height="40" width="248" data-type="shape" role="presentation" aria-hidden="true" aria-label="">
    <g fill-rule="evenodd">
        <path fill-rule="nonzero" d="M69.888 32V12.96l7.616 17.088h1.888l7.68-17.088V32h2.496V9.12h-3.232l-7.872 17.696L70.656 9.12h-3.264V32h2.496zm29.62.512c1.195 0 2.272-.24 3.232-.72.96-.48 1.739-1.125 2.336-1.936V32h2.336v-9.92c0-1.28-.277-2.395-.832-3.344a5.69 5.69 0 0 0-2.336-2.208c-1.003-.523-2.176-.784-3.52-.784-2.453 0-4.576.939-6.368 2.816l1.6 1.568c1.259-1.515 2.795-2.272 4.608-2.272 1.387 0 2.48.39 3.28 1.168.8.779 1.2 1.83 1.2 3.152v.128h-4.416c-2.07 0-3.717.47-4.944 1.408-1.227.939-1.84 2.208-1.84 3.808 0 .96.24 1.819.72 2.576.48.757 1.147 1.35 2 1.776.853.427 1.835.64 2.944.64zm.352-2.048c-1.045 0-1.883-.277-2.512-.832-.63-.555-.944-1.29-.944-2.208 0-1.003.395-1.776 1.184-2.32.79-.544 1.899-.816 3.328-.816h4.128v2.72a5.114 5.114 0 0 1-1.952 2.512c-.917.63-1.995.944-3.232.944zM114.536 32v-6.592c0-1.621.256-2.95.768-3.984.512-1.035 1.19-1.803 2.032-2.304a5.257 5.257 0 0 1 2.736-.752h.544V16h-.512c-1.11 0-2.187.288-3.232.864-1.046.576-1.835 1.547-2.368 2.912v-3.52h-2.432V32h2.464zm11.54 0v-7.424L134.268 32h3.552l-9.12-8.16 8.256-7.584h-3.296l-7.584 7.136V8.96h-2.464V32h2.464zm20.02.512c1.344 0 2.576-.283 3.696-.848s2.096-1.424 2.928-2.576l-1.664-1.6c-.64.981-1.355 1.707-2.144 2.176-.79.47-1.675.704-2.656.704-1.558 0-2.832-.501-3.824-1.504-.992-1.003-1.574-2.293-1.744-3.872h12.384v-.96c0-1.621-.31-3.056-.928-4.304-.619-1.248-1.478-2.224-2.576-2.928-1.099-.704-2.363-1.056-3.792-1.056-1.451 0-2.758.363-3.92 1.088-1.163.725-2.08 1.723-2.752 2.992-.672 1.27-1.008 2.704-1.008 4.304s.336 3.035 1.008 4.304a7.535 7.535 0 0 0 2.816 2.992c1.205.725 2.597 1.088 4.176 1.088zm4.416-9.536h-9.792c.192-1.515.752-2.741 1.68-3.68.928-.939 2.053-1.408 3.376-1.408 1.322 0 2.405.459 3.248 1.376.842.917 1.338 2.155 1.488 3.712zM164.58 32v-2.112h-2.912c-1.024 0-1.536-.544-1.536-1.632v-9.888h4.224v-2.112h-4.224v-4.608h-2.464v4.608h-3.008v2.112h3.008V28.48c0 1.13.288 2 .864 2.608.576.608 1.418.912 2.528.912h3.52zm5.907 6.208V29.6c.534.896 1.28 1.605 2.24 2.128.96.523 2.07.784 3.328.784 1.472 0 2.78-.363 3.92-1.088 1.142-.725 2.043-1.717 2.704-2.976.662-1.259.992-2.699.992-4.32 0-1.6-.32-3.035-.96-4.304-.64-1.27-1.514-2.267-2.624-2.992-1.109-.725-2.389-1.088-3.84-1.088-1.258 0-2.405.315-3.44.944a6.192 6.192 0 0 0-2.352 2.512v-2.944h-2.432v21.952h2.464zm5.216-7.84c-1.216 0-2.293-.347-3.232-1.04a5.527 5.527 0 0 1-1.984-2.736v-2.016c0-1.323.235-2.485.704-3.488.47-1.003 1.11-1.787 1.92-2.352.811-.565 1.74-.848 2.784-.848 1.024 0 1.926.267 2.704.8.78.533 1.387 1.27 1.824 2.208.438.939.656 2.016.656 3.232 0 1.216-.229 2.293-.688 3.232-.458.939-1.088 1.675-1.888 2.208-.8.533-1.733.8-2.8.8zM190.091 32V8.96h-2.464V32h2.464zm9.268.512c1.195 0 2.272-.24 3.232-.72.96-.48 1.739-1.125 2.336-1.936V32h2.336v-9.92c0-1.28-.277-2.395-.832-3.344a5.69 5.69 0 0 0-2.336-2.208c-1.002-.523-2.176-.784-3.52-.784-2.453 0-4.576.939-6.368 2.816l1.6 1.568c1.259-1.515 2.795-2.272 4.608-2.272 1.387 0 2.48.39 3.28 1.168.8.779 1.2 1.83 1.2 3.152v.128h-4.416c-2.07 0-3.717.47-4.944 1.408-1.226.939-1.84 2.208-1.84 3.808 0 .96.24 1.819.72 2.576.48.757 1.147 1.35 2 1.776.854.427 1.835.64 2.944.64zm.352-2.048c-1.045 0-1.882-.277-2.512-.832-.63-.555-.944-1.29-.944-2.208 0-1.003.395-1.776 1.184-2.32.79-.544 1.899-.816 3.328-.816h4.128v2.72a5.114 5.114 0 0 1-1.952 2.512c-.917.63-1.994.944-3.232.944zm19.092 2.048c2.667 0 4.757-1.024 6.272-3.072l-1.728-1.632c-1.045 1.707-2.528 2.56-4.448 2.56-1.6 0-2.896-.57-3.888-1.712-.992-1.141-1.488-2.65-1.488-4.528 0-1.899.49-3.413 1.472-4.544.981-1.13 2.25-1.696 3.808-1.696 1.003 0 1.899.224 2.688.672a4.788 4.788 0 0 1 1.856 1.888l1.76-1.632c-1.493-2.048-3.573-3.072-6.24-3.072-1.536 0-2.901.357-4.096 1.072-1.195.715-2.133 1.701-2.816 2.96-.683 1.259-1.024 2.71-1.024 4.352 0 1.643.336 3.093 1.008 4.352.672 1.259 1.6 2.245 2.784 2.96 1.184.715 2.544 1.072 4.08 1.072zm16.148 0c1.344 0 2.576-.283 3.696-.848s2.096-1.424 2.928-2.576l-1.664-1.6c-.64.981-1.355 1.707-2.144 2.176-.79.47-1.675.704-2.656.704-1.557 0-2.832-.501-3.824-1.504-.992-1.003-1.573-2.293-1.744-3.872h12.384v-.96c0-1.621-.31-3.056-.928-4.304-.619-1.248-1.477-2.224-2.576-2.928-1.099-.704-2.363-1.056-3.792-1.056-1.45 0-2.757.363-3.92 1.088-1.163.725-2.08 1.723-2.752 2.992-.672 1.27-1.008 2.704-1.008 4.304s.336 3.035 1.008 4.304a7.535 7.535 0 0 0 2.816 2.992c1.205.725 2.597 1.088 4.176 1.088zm4.416-9.536h-9.792c.192-1.515.752-2.741 1.68-3.68.928-.939 2.053-1.408 3.376-1.408s2.405.459 3.248 1.376c.843.917 1.339 2.155 1.488 3.712z"></path>
        <path d="M34.285 9.19c-1.19.623-1.633 1.677-1.633 4.587 0 0 .603-.583 1.496-.907a6.349 6.349 0 0 0 1.53-.831c1.005-.737 1.16-1.687 1.16-3.284 0 0-1.638-.045-2.553.435"></path>
        <path d="M27.077 9.878c-.963.86-1.244 2.231-1.244 2.231l-3.187 12.52-2.65-10.247c-.259-1.089-.724-2.435-1.46-3.346-.938-1.16-2.844-1.233-3.047-1.233-.204 0-2.11.073-3.047 1.233-.737.91-1.202 2.257-1.46 3.346l-2.65 10.247-3.188-12.52s-.28-1.37-1.242-2.231C2.341 8.483 0 8.781 0 8.781l6.103 23.396s2.012.148 3.02-.373c1.323-.684 1.952-1.212 2.753-4.395.714-2.837 2.71-11.174 2.896-11.768.092-.294.21-.994.717-.994.518 0 .626.7.716.994.183.594 2.182 8.93 2.896 11.768.801 3.183 1.431 3.71 2.754 4.395 1.007.52 3.02.373 3.02.373l6.103-23.396s-2.34-.298-3.901 1.097"></path>
        <path d="M36.837 12.94s-.385.588-1.263 1.073c-.564.311-1.105.522-1.685.797-.973.461-1.237.974-1.237 1.757v15.594s1.553.193 2.568-.318c1.307-.658 1.607-1.292 1.618-4.148V13.772h-.001v-.832z"></path>
        <path d="M52.59 20.516l7.691-11.658s-3.246-.563-4.853.929c-1.029.953-2.179 2.669-2.179 2.669l-2.83 4.157c-.137.217-.316.452-.604.452-.287 0-.466-.235-.604-.452l-2.83-4.157s-1.15-1.716-2.178-2.67c-1.607-1.49-4.853-.927-4.853-.927l7.69 11.658-7.67 11.622s3.38.434 4.988-1.057c1.027-.953 2.023-2.505 2.023-2.505l2.83-4.157c.138-.217.317-.451.604-.451.288 0 .467.234.604.451l2.83 4.157s1.054 1.552 2.083 2.505c1.607 1.491 4.929 1.057 4.929 1.057l-7.67-11.622z"></path>
    </g>
</svg>